<mxfile host="app.diagrams.net" agent="Mozilla/5.0 (X11; Linux x86_64) AppleWebKit/537.36 (KHTML, like Gecko) Chrome/127.0.0.0 Safari/537.36" version="24.7.16">
  <diagram name="第 1 页" id="p6qr_Ct5mwGBdZG3CmUp">
    <mxGraphModel dx="1364" dy="759" grid="1" gridSize="10" guides="1" tooltips="1" connect="1" arrows="1" fold="1" page="1" pageScale="1" pageWidth="827" pageHeight="1169" math="0" shadow="0">
      <root>
        <mxCell id="0" />
        <mxCell id="1" parent="0" />
        <mxCell id="DgdFNtUtI_2oOt3CRJR_-1" value="" style="rounded=0;whiteSpace=wrap;html=1;fillColor=#DFFAF6;fontColor=#333333;strokeColor=#666666;" vertex="1" parent="1">
          <mxGeometry x="230" y="100" width="510" height="580" as="geometry" />
        </mxCell>
        <mxCell id="DgdFNtUtI_2oOt3CRJR_-2" value="" style="rounded=0;whiteSpace=wrap;html=1;fillColor=#EBEBEB;fontColor=#333333;strokeColor=#666666;" vertex="1" parent="1">
          <mxGeometry x="40" y="180" width="160" height="740" as="geometry" />
        </mxCell>
        <mxCell id="DgdFNtUtI_2oOt3CRJR_-3" value="" style="edgeStyle=orthogonalEdgeStyle;rounded=0;orthogonalLoop=1;jettySize=auto;html=1;" edge="1" parent="1" source="DgdFNtUtI_2oOt3CRJR_-4" target="DgdFNtUtI_2oOt3CRJR_-6">
          <mxGeometry x="120" y="840" as="geometry" />
        </mxCell>
        <mxCell id="DgdFNtUtI_2oOt3CRJR_-4" value="Conv" style="rounded=0;whiteSpace=wrap;html=1;fillColor=#ffe6cc;strokeColor=#d79b00;" vertex="1" parent="1">
          <mxGeometry x="80" y="860" width="80" height="40" as="geometry" />
        </mxCell>
        <mxCell id="DgdFNtUtI_2oOt3CRJR_-5" value="" style="edgeStyle=orthogonalEdgeStyle;rounded=0;orthogonalLoop=1;jettySize=auto;html=1;" edge="1" parent="1" source="DgdFNtUtI_2oOt3CRJR_-6" target="DgdFNtUtI_2oOt3CRJR_-8">
          <mxGeometry x="120" y="780" as="geometry" />
        </mxCell>
        <mxCell id="DgdFNtUtI_2oOt3CRJR_-6" value="Conv" style="rounded=0;whiteSpace=wrap;html=1;fillColor=#ffe6cc;strokeColor=#d79b00;" vertex="1" parent="1">
          <mxGeometry x="80" y="800" width="80" height="40" as="geometry" />
        </mxCell>
        <mxCell id="DgdFNtUtI_2oOt3CRJR_-7" value="" style="edgeStyle=orthogonalEdgeStyle;rounded=0;orthogonalLoop=1;jettySize=auto;html=1;" edge="1" parent="1" source="DgdFNtUtI_2oOt3CRJR_-8" target="DgdFNtUtI_2oOt3CRJR_-10">
          <mxGeometry x="120" y="720" as="geometry" />
        </mxCell>
        <mxCell id="DgdFNtUtI_2oOt3CRJR_-8" value="C3*3" style="rounded=0;whiteSpace=wrap;html=1;fillColor=#dae8fc;strokeColor=#6c8ebf;" vertex="1" parent="1">
          <mxGeometry x="80" y="740" width="80" height="40" as="geometry" />
        </mxCell>
        <mxCell id="DgdFNtUtI_2oOt3CRJR_-9" value="" style="edgeStyle=orthogonalEdgeStyle;rounded=0;orthogonalLoop=1;jettySize=auto;html=1;" edge="1" parent="1" source="DgdFNtUtI_2oOt3CRJR_-10" target="DgdFNtUtI_2oOt3CRJR_-13">
          <mxGeometry x="120" y="660" as="geometry" />
        </mxCell>
        <mxCell id="DgdFNtUtI_2oOt3CRJR_-10" value="Conv" style="rounded=0;whiteSpace=wrap;html=1;fillColor=#ffe6cc;strokeColor=#d79b00;" vertex="1" parent="1">
          <mxGeometry x="80" y="680" width="80" height="40" as="geometry" />
        </mxCell>
        <mxCell id="DgdFNtUtI_2oOt3CRJR_-11" value="" style="edgeStyle=orthogonalEdgeStyle;rounded=0;orthogonalLoop=1;jettySize=auto;html=1;" edge="1" parent="1" source="DgdFNtUtI_2oOt3CRJR_-13" target="DgdFNtUtI_2oOt3CRJR_-15">
          <mxGeometry x="120" y="600" as="geometry" />
        </mxCell>
        <mxCell id="DgdFNtUtI_2oOt3CRJR_-12" value="" style="edgeStyle=orthogonalEdgeStyle;rounded=0;orthogonalLoop=1;jettySize=auto;html=1;" edge="1" parent="1" source="DgdFNtUtI_2oOt3CRJR_-13" target="DgdFNtUtI_2oOt3CRJR_-54">
          <mxGeometry x="160" y="640" as="geometry" />
        </mxCell>
        <mxCell id="DgdFNtUtI_2oOt3CRJR_-13" value="C3*6" style="rounded=0;whiteSpace=wrap;html=1;fillColor=#dae8fc;strokeColor=#6c8ebf;" vertex="1" parent="1">
          <mxGeometry x="80" y="620" width="80" height="40" as="geometry" />
        </mxCell>
        <mxCell id="DgdFNtUtI_2oOt3CRJR_-14" value="" style="edgeStyle=orthogonalEdgeStyle;rounded=0;orthogonalLoop=1;jettySize=auto;html=1;" edge="1" parent="1" source="DgdFNtUtI_2oOt3CRJR_-15" target="DgdFNtUtI_2oOt3CRJR_-18">
          <mxGeometry x="120" y="420" as="geometry" />
        </mxCell>
        <mxCell id="DgdFNtUtI_2oOt3CRJR_-15" value="Conv" style="rounded=0;whiteSpace=wrap;html=1;fillColor=#ffe6cc;strokeColor=#d79b00;" vertex="1" parent="1">
          <mxGeometry x="80" y="560" width="80" height="40" as="geometry" />
        </mxCell>
        <mxCell id="DgdFNtUtI_2oOt3CRJR_-16" value="" style="edgeStyle=orthogonalEdgeStyle;rounded=0;orthogonalLoop=1;jettySize=auto;html=1;" edge="1" parent="1" source="DgdFNtUtI_2oOt3CRJR_-18" target="DgdFNtUtI_2oOt3CRJR_-20">
          <mxGeometry x="120" y="360" as="geometry" />
        </mxCell>
        <mxCell id="DgdFNtUtI_2oOt3CRJR_-17" value="" style="edgeStyle=orthogonalEdgeStyle;rounded=0;orthogonalLoop=1;jettySize=auto;html=1;" edge="1" parent="1" source="DgdFNtUtI_2oOt3CRJR_-18" target="DgdFNtUtI_2oOt3CRJR_-35">
          <mxGeometry x="160" y="400" as="geometry" />
        </mxCell>
        <mxCell id="DgdFNtUtI_2oOt3CRJR_-18" value="C3*9" style="rounded=0;whiteSpace=wrap;html=1;fillColor=#dae8fc;strokeColor=#6c8ebf;" vertex="1" parent="1">
          <mxGeometry x="80" y="380" width="80" height="40" as="geometry" />
        </mxCell>
        <mxCell id="DgdFNtUtI_2oOt3CRJR_-19" value="" style="edgeStyle=orthogonalEdgeStyle;rounded=0;orthogonalLoop=1;jettySize=auto;html=1;" edge="1" parent="1" source="DgdFNtUtI_2oOt3CRJR_-20" target="DgdFNtUtI_2oOt3CRJR_-22">
          <mxGeometry x="120" y="300" as="geometry" />
        </mxCell>
        <mxCell id="DgdFNtUtI_2oOt3CRJR_-20" value="Conv" style="rounded=0;whiteSpace=wrap;html=1;fillColor=#ffe6cc;strokeColor=#d79b00;" vertex="1" parent="1">
          <mxGeometry x="80" y="320" width="80" height="40" as="geometry" />
        </mxCell>
        <mxCell id="DgdFNtUtI_2oOt3CRJR_-21" value="" style="edgeStyle=orthogonalEdgeStyle;rounded=0;orthogonalLoop=1;jettySize=auto;html=1;" edge="1" parent="1" source="DgdFNtUtI_2oOt3CRJR_-22" target="DgdFNtUtI_2oOt3CRJR_-24">
          <mxGeometry x="120" y="240" as="geometry" />
        </mxCell>
        <mxCell id="DgdFNtUtI_2oOt3CRJR_-22" value="C3*3" style="rounded=0;whiteSpace=wrap;html=1;fillColor=#dae8fc;strokeColor=#6c8ebf;" vertex="1" parent="1">
          <mxGeometry x="80" y="260" width="80" height="40" as="geometry" />
        </mxCell>
        <mxCell id="DgdFNtUtI_2oOt3CRJR_-23" value="" style="edgeStyle=orthogonalEdgeStyle;rounded=0;orthogonalLoop=1;jettySize=auto;html=1;" edge="1" parent="1" source="DgdFNtUtI_2oOt3CRJR_-24" target="DgdFNtUtI_2oOt3CRJR_-27">
          <mxGeometry x="160" y="220" as="geometry" />
        </mxCell>
        <mxCell id="DgdFNtUtI_2oOt3CRJR_-24" value="SPPF" style="rounded=0;whiteSpace=wrap;html=1;fillColor=#e1d5e7;strokeColor=#9673a6;" vertex="1" parent="1">
          <mxGeometry x="80" y="200" width="80" height="40" as="geometry" />
        </mxCell>
        <mxCell id="DgdFNtUtI_2oOt3CRJR_-25" value="" style="edgeStyle=orthogonalEdgeStyle;rounded=0;orthogonalLoop=1;jettySize=auto;html=1;" edge="1" parent="1" source="DgdFNtUtI_2oOt3CRJR_-27" target="DgdFNtUtI_2oOt3CRJR_-33">
          <mxGeometry x="320" y="240" as="geometry" />
        </mxCell>
        <mxCell id="DgdFNtUtI_2oOt3CRJR_-26" style="edgeStyle=orthogonalEdgeStyle;rounded=0;orthogonalLoop=1;jettySize=auto;html=1;entryX=0;entryY=0.5;entryDx=0;entryDy=0;" edge="1" parent="1" source="DgdFNtUtI_2oOt3CRJR_-27" target="DgdFNtUtI_2oOt3CRJR_-78">
          <mxGeometry x="360" y="220" as="geometry" />
        </mxCell>
        <mxCell id="DgdFNtUtI_2oOt3CRJR_-27" value="Conv" style="rounded=0;whiteSpace=wrap;html=1;fillColor=#ffe6cc;strokeColor=#d79b00;" vertex="1" parent="1">
          <mxGeometry x="280" y="200" width="80" height="40" as="geometry" />
        </mxCell>
        <mxCell id="DgdFNtUtI_2oOt3CRJR_-28" value="" style="whiteSpace=wrap;html=1;aspect=fixed;fillColor=#0000CC;fontColor=#ffffff;strokeColor=#0000CC;" vertex="1" parent="1">
          <mxGeometry x="110" y="960" width="40" height="40" as="geometry" />
        </mxCell>
        <mxCell id="DgdFNtUtI_2oOt3CRJR_-29" value="" style="whiteSpace=wrap;html=1;aspect=fixed;fillColor=#00CC00;fontColor=#ffffff;strokeColor=#00CC00;" vertex="1" parent="1">
          <mxGeometry x="100" y="970" width="40" height="40" as="geometry" />
        </mxCell>
        <mxCell id="DgdFNtUtI_2oOt3CRJR_-30" value="" style="whiteSpace=wrap;html=1;aspect=fixed;fillColor=#e51400;fontColor=#ffffff;strokeColor=#B20000;" vertex="1" parent="1">
          <mxGeometry x="90" y="980" width="40" height="40" as="geometry" />
        </mxCell>
        <mxCell id="DgdFNtUtI_2oOt3CRJR_-31" value="" style="endArrow=classic;html=1;rounded=0;exitX=0.252;exitY=-0.048;exitDx=0;exitDy=0;exitPerimeter=0;" edge="1" parent="1" source="DgdFNtUtI_2oOt3CRJR_-28">
          <mxGeometry x="120" y="920" width="50" height="50" as="geometry">
            <mxPoint x="120" y="950" as="sourcePoint" />
            <mxPoint x="120" y="920" as="targetPoint" />
          </mxGeometry>
        </mxCell>
        <mxCell id="DgdFNtUtI_2oOt3CRJR_-32" value="" style="edgeStyle=orthogonalEdgeStyle;rounded=0;orthogonalLoop=1;jettySize=auto;html=1;" edge="1" parent="1" source="DgdFNtUtI_2oOt3CRJR_-33" target="DgdFNtUtI_2oOt3CRJR_-35">
          <mxGeometry x="320" y="360" as="geometry" />
        </mxCell>
        <mxCell id="DgdFNtUtI_2oOt3CRJR_-33" value="Upsample" style="rounded=0;whiteSpace=wrap;html=1;fillColor=#d5e8d4;strokeColor=#82b366;" vertex="1" parent="1">
          <mxGeometry x="280" y="320" width="80" height="40" as="geometry" />
        </mxCell>
        <mxCell id="DgdFNtUtI_2oOt3CRJR_-34" value="" style="edgeStyle=orthogonalEdgeStyle;rounded=0;orthogonalLoop=1;jettySize=auto;html=1;" edge="1" parent="1" source="DgdFNtUtI_2oOt3CRJR_-35" target="DgdFNtUtI_2oOt3CRJR_-47">
          <mxGeometry x="320" y="420" as="geometry" />
        </mxCell>
        <mxCell id="DgdFNtUtI_2oOt3CRJR_-35" value="Concat" style="rounded=0;whiteSpace=wrap;html=1;fillColor=#f8cecc;strokeColor=#b85450;" vertex="1" parent="1">
          <mxGeometry x="280" y="380" width="80" height="40" as="geometry" />
        </mxCell>
        <mxCell id="DgdFNtUtI_2oOt3CRJR_-36" value="0" style="text;strokeColor=none;align=center;fillColor=none;html=1;verticalAlign=middle;whiteSpace=wrap;rounded=0;fontColor=#f50a0a;" vertex="1" parent="1">
          <mxGeometry x="20" y="885" width="60" height="30" as="geometry" />
        </mxCell>
        <mxCell id="DgdFNtUtI_2oOt3CRJR_-37" value="1" style="text;strokeColor=none;align=center;fillColor=none;html=1;verticalAlign=middle;whiteSpace=wrap;rounded=0;fontColor=#f50a0a;" vertex="1" parent="1">
          <mxGeometry x="20" y="805" width="60" height="30" as="geometry" />
        </mxCell>
        <mxCell id="DgdFNtUtI_2oOt3CRJR_-38" value="2" style="text;strokeColor=none;align=center;fillColor=none;html=1;verticalAlign=middle;whiteSpace=wrap;rounded=0;fontColor=#f50a0a;" vertex="1" parent="1">
          <mxGeometry x="20" y="745" width="60" height="30" as="geometry" />
        </mxCell>
        <mxCell id="DgdFNtUtI_2oOt3CRJR_-39" value="3" style="text;strokeColor=none;align=center;fillColor=none;html=1;verticalAlign=middle;whiteSpace=wrap;rounded=0;fontColor=#f50a0a;" vertex="1" parent="1">
          <mxGeometry x="20" y="685" width="60" height="30" as="geometry" />
        </mxCell>
        <mxCell id="DgdFNtUtI_2oOt3CRJR_-40" value="4" style="text;strokeColor=none;align=center;fillColor=none;html=1;verticalAlign=middle;whiteSpace=wrap;rounded=0;fontColor=#f50a0a;" vertex="1" parent="1">
          <mxGeometry x="20" y="625" width="60" height="30" as="geometry" />
        </mxCell>
        <mxCell id="DgdFNtUtI_2oOt3CRJR_-41" value="5" style="text;strokeColor=none;align=center;fillColor=none;html=1;verticalAlign=middle;whiteSpace=wrap;rounded=0;fontColor=#f50a0a;" vertex="1" parent="1">
          <mxGeometry x="20" y="565" width="60" height="30" as="geometry" />
        </mxCell>
        <mxCell id="DgdFNtUtI_2oOt3CRJR_-42" value="6" style="text;strokeColor=none;align=center;fillColor=none;html=1;verticalAlign=middle;whiteSpace=wrap;rounded=0;fontColor=#f50a0a;" vertex="1" parent="1">
          <mxGeometry x="20" y="385" width="60" height="30" as="geometry" />
        </mxCell>
        <mxCell id="DgdFNtUtI_2oOt3CRJR_-43" value="7" style="text;strokeColor=none;align=center;fillColor=none;html=1;verticalAlign=middle;whiteSpace=wrap;rounded=0;fontColor=#f50a0a;" vertex="1" parent="1">
          <mxGeometry x="20" y="325" width="60" height="30" as="geometry" />
        </mxCell>
        <mxCell id="DgdFNtUtI_2oOt3CRJR_-44" value="8" style="text;strokeColor=none;align=center;fillColor=none;html=1;verticalAlign=middle;whiteSpace=wrap;rounded=0;fontColor=#f50a0a;" vertex="1" parent="1">
          <mxGeometry x="20" y="265" width="60" height="30" as="geometry" />
        </mxCell>
        <mxCell id="DgdFNtUtI_2oOt3CRJR_-45" value="9" style="text;strokeColor=none;align=center;fillColor=none;html=1;verticalAlign=middle;whiteSpace=wrap;rounded=0;fontColor=#f50a0a;" vertex="1" parent="1">
          <mxGeometry x="20" y="205" width="60" height="30" as="geometry" />
        </mxCell>
        <mxCell id="DgdFNtUtI_2oOt3CRJR_-46" value="" style="edgeStyle=orthogonalEdgeStyle;rounded=0;orthogonalLoop=1;jettySize=auto;html=1;" edge="1" parent="1" source="DgdFNtUtI_2oOt3CRJR_-47" target="DgdFNtUtI_2oOt3CRJR_-50">
          <mxGeometry x="320" y="480" as="geometry" />
        </mxCell>
        <mxCell id="DgdFNtUtI_2oOt3CRJR_-47" value="C3*3" style="rounded=0;whiteSpace=wrap;html=1;fillColor=#dae8fc;strokeColor=#6c8ebf;" vertex="1" parent="1">
          <mxGeometry x="280" y="440" width="80" height="40" as="geometry" />
        </mxCell>
        <mxCell id="DgdFNtUtI_2oOt3CRJR_-48" value="" style="edgeStyle=orthogonalEdgeStyle;rounded=0;orthogonalLoop=1;jettySize=auto;html=1;" edge="1" parent="1" source="DgdFNtUtI_2oOt3CRJR_-50" target="DgdFNtUtI_2oOt3CRJR_-52">
          <mxGeometry x="320" y="540" as="geometry" />
        </mxCell>
        <mxCell id="DgdFNtUtI_2oOt3CRJR_-49" value="" style="edgeStyle=orthogonalEdgeStyle;rounded=0;orthogonalLoop=1;jettySize=auto;html=1;entryX=0;entryY=0.5;entryDx=0;entryDy=0;" edge="1" parent="1" source="DgdFNtUtI_2oOt3CRJR_-50" target="DgdFNtUtI_2oOt3CRJR_-69">
          <mxGeometry x="360" y="520" as="geometry">
            <mxPoint x="440" y="520" as="targetPoint" />
          </mxGeometry>
        </mxCell>
        <mxCell id="DgdFNtUtI_2oOt3CRJR_-50" value="Conv" style="rounded=0;whiteSpace=wrap;html=1;fillColor=#ffe6cc;strokeColor=#d79b00;" vertex="1" parent="1">
          <mxGeometry x="280" y="500" width="80" height="40" as="geometry" />
        </mxCell>
        <mxCell id="DgdFNtUtI_2oOt3CRJR_-51" value="" style="edgeStyle=orthogonalEdgeStyle;rounded=0;orthogonalLoop=1;jettySize=auto;html=1;" edge="1" parent="1" source="DgdFNtUtI_2oOt3CRJR_-52" target="DgdFNtUtI_2oOt3CRJR_-54">
          <mxGeometry x="320" y="600" as="geometry" />
        </mxCell>
        <mxCell id="DgdFNtUtI_2oOt3CRJR_-52" value="Upsample" style="rounded=0;whiteSpace=wrap;html=1;fillColor=#d5e8d4;strokeColor=#82b366;" vertex="1" parent="1">
          <mxGeometry x="280" y="560" width="80" height="40" as="geometry" />
        </mxCell>
        <mxCell id="DgdFNtUtI_2oOt3CRJR_-53" value="" style="edgeStyle=orthogonalEdgeStyle;rounded=0;orthogonalLoop=1;jettySize=auto;html=1;" edge="1" parent="1" source="DgdFNtUtI_2oOt3CRJR_-54" target="DgdFNtUtI_2oOt3CRJR_-57">
          <mxGeometry x="360" y="640" as="geometry" />
        </mxCell>
        <mxCell id="DgdFNtUtI_2oOt3CRJR_-54" value="Concat" style="rounded=0;whiteSpace=wrap;html=1;fillColor=#f8cecc;strokeColor=#b85450;" vertex="1" parent="1">
          <mxGeometry x="280" y="620" width="80" height="40" as="geometry" />
        </mxCell>
        <mxCell id="DgdFNtUtI_2oOt3CRJR_-55" value="" style="edgeStyle=orthogonalEdgeStyle;rounded=0;orthogonalLoop=1;jettySize=auto;html=1;" edge="1" parent="1" source="DgdFNtUtI_2oOt3CRJR_-57" target="DgdFNtUtI_2oOt3CRJR_-67">
          <mxGeometry x="520" y="600" as="geometry" />
        </mxCell>
        <mxCell id="DgdFNtUtI_2oOt3CRJR_-56" style="edgeStyle=orthogonalEdgeStyle;rounded=0;orthogonalLoop=1;jettySize=auto;html=1;entryX=0.5;entryY=1;entryDx=0;entryDy=0;" edge="1" parent="1" source="DgdFNtUtI_2oOt3CRJR_-57" target="DgdFNtUtI_2oOt3CRJR_-85">
          <mxGeometry x="560" y="480" as="geometry" />
        </mxCell>
        <mxCell id="DgdFNtUtI_2oOt3CRJR_-57" value="C3*3" style="rounded=0;whiteSpace=wrap;html=1;fillColor=#dae8fc;strokeColor=#6c8ebf;" vertex="1" parent="1">
          <mxGeometry x="480" y="620" width="80" height="40" as="geometry" />
        </mxCell>
        <mxCell id="DgdFNtUtI_2oOt3CRJR_-58" value="10" style="text;strokeColor=none;align=center;fillColor=none;html=1;verticalAlign=middle;whiteSpace=wrap;rounded=0;fontColor=#f50a0a;" vertex="1" parent="1">
          <mxGeometry x="220" y="190" width="60" height="30" as="geometry" />
        </mxCell>
        <mxCell id="DgdFNtUtI_2oOt3CRJR_-59" value="11" style="text;strokeColor=none;align=center;fillColor=none;html=1;verticalAlign=middle;whiteSpace=wrap;rounded=0;fontColor=#f50a0a;" vertex="1" parent="1">
          <mxGeometry x="220" y="325" width="60" height="30" as="geometry" />
        </mxCell>
        <mxCell id="DgdFNtUtI_2oOt3CRJR_-60" value="12" style="text;strokeColor=none;align=center;fillColor=none;html=1;verticalAlign=middle;whiteSpace=wrap;rounded=0;fontColor=#f50a0a;" vertex="1" parent="1">
          <mxGeometry x="220" y="370" width="60" height="30" as="geometry" />
        </mxCell>
        <mxCell id="DgdFNtUtI_2oOt3CRJR_-61" value="13" style="text;strokeColor=none;align=center;fillColor=none;html=1;verticalAlign=middle;whiteSpace=wrap;rounded=0;fontColor=#f50a0a;" vertex="1" parent="1">
          <mxGeometry x="220" y="445" width="60" height="30" as="geometry" />
        </mxCell>
        <mxCell id="DgdFNtUtI_2oOt3CRJR_-62" value="14" style="text;strokeColor=none;align=center;fillColor=none;html=1;verticalAlign=middle;whiteSpace=wrap;rounded=0;fontColor=#f50a0a;" vertex="1" parent="1">
          <mxGeometry x="220" y="505" width="60" height="30" as="geometry" />
        </mxCell>
        <mxCell id="DgdFNtUtI_2oOt3CRJR_-63" value="15" style="text;strokeColor=none;align=center;fillColor=none;html=1;verticalAlign=middle;whiteSpace=wrap;rounded=0;fontColor=#f50a0a;" vertex="1" parent="1">
          <mxGeometry x="220" y="565" width="60" height="30" as="geometry" />
        </mxCell>
        <mxCell id="DgdFNtUtI_2oOt3CRJR_-64" value="16" style="text;strokeColor=none;align=center;fillColor=none;html=1;verticalAlign=middle;whiteSpace=wrap;rounded=0;fontColor=#f50a0a;" vertex="1" parent="1">
          <mxGeometry x="220" y="610" width="60" height="30" as="geometry" />
        </mxCell>
        <mxCell id="DgdFNtUtI_2oOt3CRJR_-65" value="17" style="text;strokeColor=none;align=center;fillColor=none;html=1;verticalAlign=middle;whiteSpace=wrap;rounded=0;fontColor=#f50a0a;" vertex="1" parent="1">
          <mxGeometry x="420" y="610" width="60" height="30" as="geometry" />
        </mxCell>
        <mxCell id="DgdFNtUtI_2oOt3CRJR_-66" value="" style="edgeStyle=orthogonalEdgeStyle;rounded=0;orthogonalLoop=1;jettySize=auto;html=1;" edge="1" parent="1" source="DgdFNtUtI_2oOt3CRJR_-67" target="DgdFNtUtI_2oOt3CRJR_-69">
          <mxGeometry x="520" y="540" as="geometry" />
        </mxCell>
        <mxCell id="DgdFNtUtI_2oOt3CRJR_-67" value="Conv" style="rounded=0;whiteSpace=wrap;html=1;fillColor=#ffe6cc;strokeColor=#d79b00;" vertex="1" parent="1">
          <mxGeometry x="480" y="560" width="80" height="40" as="geometry" />
        </mxCell>
        <mxCell id="DgdFNtUtI_2oOt3CRJR_-68" value="" style="edgeStyle=orthogonalEdgeStyle;rounded=0;orthogonalLoop=1;jettySize=auto;html=1;" edge="1" parent="1" source="DgdFNtUtI_2oOt3CRJR_-69" target="DgdFNtUtI_2oOt3CRJR_-71">
          <mxGeometry x="520" y="480" as="geometry" />
        </mxCell>
        <mxCell id="DgdFNtUtI_2oOt3CRJR_-69" value="Concat" style="rounded=0;whiteSpace=wrap;html=1;fillColor=#f8cecc;strokeColor=#b85450;" vertex="1" parent="1">
          <mxGeometry x="480" y="500" width="80" height="40" as="geometry" />
        </mxCell>
        <mxCell id="DgdFNtUtI_2oOt3CRJR_-70" style="edgeStyle=orthogonalEdgeStyle;rounded=0;orthogonalLoop=1;jettySize=auto;html=1;entryX=0;entryY=0.5;entryDx=0;entryDy=0;" edge="1" parent="1" source="DgdFNtUtI_2oOt3CRJR_-71" target="DgdFNtUtI_2oOt3CRJR_-85">
          <mxGeometry x="560" y="460" as="geometry" />
        </mxCell>
        <mxCell id="DgdFNtUtI_2oOt3CRJR_-71" value="C3*3" style="rounded=0;whiteSpace=wrap;html=1;fillColor=#dae8fc;strokeColor=#6c8ebf;" vertex="1" parent="1">
          <mxGeometry x="480" y="440" width="80" height="40" as="geometry" />
        </mxCell>
        <mxCell id="DgdFNtUtI_2oOt3CRJR_-72" value="18" style="text;strokeColor=none;align=center;fillColor=none;html=1;verticalAlign=middle;whiteSpace=wrap;rounded=0;fontColor=#f50a0a;" vertex="1" parent="1">
          <mxGeometry x="420" y="565" width="60" height="30" as="geometry" />
        </mxCell>
        <mxCell id="DgdFNtUtI_2oOt3CRJR_-73" value="19" style="text;strokeColor=none;align=center;fillColor=none;html=1;verticalAlign=middle;whiteSpace=wrap;rounded=0;fontColor=#f50a0a;" vertex="1" parent="1">
          <mxGeometry x="420" y="490" width="60" height="30" as="geometry" />
        </mxCell>
        <mxCell id="DgdFNtUtI_2oOt3CRJR_-74" value="20" style="text;strokeColor=none;align=center;fillColor=none;html=1;verticalAlign=middle;whiteSpace=wrap;rounded=0;fontColor=#f50a0a;" vertex="1" parent="1">
          <mxGeometry x="420" y="445" width="60" height="30" as="geometry" />
        </mxCell>
        <mxCell id="DgdFNtUtI_2oOt3CRJR_-75" value="" style="edgeStyle=orthogonalEdgeStyle;rounded=0;orthogonalLoop=1;jettySize=auto;html=1;" edge="1" parent="1" source="DgdFNtUtI_2oOt3CRJR_-76" target="DgdFNtUtI_2oOt3CRJR_-78">
          <mxGeometry x="520" y="240" as="geometry" />
        </mxCell>
        <mxCell id="DgdFNtUtI_2oOt3CRJR_-76" value="Conv" style="rounded=0;whiteSpace=wrap;html=1;fillColor=#ffe6cc;strokeColor=#d79b00;" vertex="1" parent="1">
          <mxGeometry x="480" y="320" width="80" height="40" as="geometry" />
        </mxCell>
        <mxCell id="DgdFNtUtI_2oOt3CRJR_-77" value="" style="edgeStyle=orthogonalEdgeStyle;rounded=0;orthogonalLoop=1;jettySize=auto;html=1;" edge="1" parent="1" source="DgdFNtUtI_2oOt3CRJR_-78" target="DgdFNtUtI_2oOt3CRJR_-83">
          <mxGeometry x="520" y="160" as="geometry" />
        </mxCell>
        <mxCell id="DgdFNtUtI_2oOt3CRJR_-78" value="Concat" style="rounded=0;whiteSpace=wrap;html=1;fillColor=#f8cecc;strokeColor=#b85450;" vertex="1" parent="1">
          <mxGeometry x="480" y="200" width="80" height="40" as="geometry" />
        </mxCell>
        <mxCell id="DgdFNtUtI_2oOt3CRJR_-79" value="" style="endArrow=classic;html=1;rounded=0;exitX=0.5;exitY=0;exitDx=0;exitDy=0;entryX=0.5;entryY=1;entryDx=0;entryDy=0;" edge="1" parent="1" source="DgdFNtUtI_2oOt3CRJR_-71" target="DgdFNtUtI_2oOt3CRJR_-76">
          <mxGeometry x="520" y="360" width="50" height="50" as="geometry">
            <mxPoint x="470" y="450" as="sourcePoint" />
            <mxPoint x="520" y="420" as="targetPoint" />
          </mxGeometry>
        </mxCell>
        <mxCell id="DgdFNtUtI_2oOt3CRJR_-80" value="21" style="text;strokeColor=none;align=center;fillColor=none;html=1;verticalAlign=middle;whiteSpace=wrap;rounded=0;fontColor=#f50a0a;" vertex="1" parent="1">
          <mxGeometry x="420" y="325" width="60" height="30" as="geometry" />
        </mxCell>
        <mxCell id="DgdFNtUtI_2oOt3CRJR_-81" value="22" style="text;strokeColor=none;align=center;fillColor=none;html=1;verticalAlign=middle;whiteSpace=wrap;rounded=0;fontColor=#f50a0a;" vertex="1" parent="1">
          <mxGeometry x="420" y="190" width="60" height="30" as="geometry" />
        </mxCell>
        <mxCell id="DgdFNtUtI_2oOt3CRJR_-82" style="edgeStyle=orthogonalEdgeStyle;rounded=0;orthogonalLoop=1;jettySize=auto;html=1;entryX=0.5;entryY=0;entryDx=0;entryDy=0;" edge="1" parent="1" source="DgdFNtUtI_2oOt3CRJR_-83" target="DgdFNtUtI_2oOt3CRJR_-85">
          <mxGeometry x="560" y="140" as="geometry" />
        </mxCell>
        <mxCell id="DgdFNtUtI_2oOt3CRJR_-83" value="C3*3" style="rounded=0;whiteSpace=wrap;html=1;fillColor=#dae8fc;strokeColor=#6c8ebf;" vertex="1" parent="1">
          <mxGeometry x="480" y="120" width="80" height="40" as="geometry" />
        </mxCell>
        <mxCell id="DgdFNtUtI_2oOt3CRJR_-84" value="23" style="text;strokeColor=none;align=center;fillColor=none;html=1;verticalAlign=middle;whiteSpace=wrap;rounded=0;fontColor=#f50a0a;" vertex="1" parent="1">
          <mxGeometry x="420" y="125" width="60" height="30" as="geometry" />
        </mxCell>
        <mxCell id="DgdFNtUtI_2oOt3CRJR_-85" value="Detect" style="rounded=0;whiteSpace=wrap;html=1;fillColor=#0050ef;strokeColor=#001DBC;fontColor=#ffffff;" vertex="1" parent="1">
          <mxGeometry x="640" y="440" width="80" height="40" as="geometry" />
        </mxCell>
        <mxCell id="DgdFNtUtI_2oOt3CRJR_-86" value="&lt;b&gt;&lt;font style=&quot;font-size: 18px;&quot; color=&quot;#ff0000&quot;&gt;Backbone&lt;/font&gt;&lt;/b&gt;" style="text;strokeColor=none;align=center;fillColor=none;html=1;verticalAlign=middle;whiteSpace=wrap;rounded=0;" vertex="1" parent="1">
          <mxGeometry x="90" y="150" width="60" height="30" as="geometry" />
        </mxCell>
        <mxCell id="DgdFNtUtI_2oOt3CRJR_-87" value="&lt;b&gt;&lt;font style=&quot;font-size: 18px;&quot; color=&quot;#ff0000&quot;&gt;Head&lt;/font&gt;&lt;/b&gt;" style="text;strokeColor=none;align=center;fillColor=none;html=1;verticalAlign=middle;whiteSpace=wrap;rounded=0;" vertex="1" parent="1">
          <mxGeometry x="450" y="70" width="60" height="30" as="geometry" />
        </mxCell>
        <mxCell id="DgdFNtUtI_2oOt3CRJR_-88" value="24" style="text;strokeColor=none;align=center;fillColor=none;html=1;verticalAlign=middle;whiteSpace=wrap;rounded=0;fontColor=#f50a0a;" vertex="1" parent="1">
          <mxGeometry x="580" y="430" width="60" height="30" as="geometry" />
        </mxCell>
      </root>
    </mxGraphModel>
  </diagram>
</mxfile>
